<svg xmlns="http://www.w3.org/2000/svg" viewBox="0 0 920 880" role="img" aria-labelledby="title desc">
  <title id="title">Daystar Global growth console</title>
  <desc id="desc">A stylized analytics console for TikTok Shop campaign growth, creative testing, ROI, and market performance.</desc>
  <defs>
    <linearGradient id="bg" x1="0" y1="0" x2="1" y2="1">
      <stop offset="0" stop-color="#121a31"/>
      <stop offset="0.52" stop-color="#0c1324"/>
      <stop offset="1" stop-color="#162235"/>
    </linearGradient>
    <linearGradient id="cyan" x1="0" y1="0" x2="1" y2="1">
      <stop offset="0" stop-color="#55d6e8"/>
      <stop offset="1" stop-color="#8ddf93"/>
    </linearGradient>
    <linearGradient id="gold" x1="0" y1="0" x2="1" y2="0">
      <stop offset="0" stop-color="#f3c969"/>
      <stop offset="1" stop-color="#f7e4a0"/>
    </linearGradient>
    <filter id="soft" x="-20%" y="-20%" width="140%" height="140%">
      <feDropShadow dx="0" dy="24" stdDeviation="32" flood-color="#000" flood-opacity=".35"/>
    </filter>
  </defs>

  <rect width="920" height="880" fill="url(#bg)"/>
  <path d="M0 114h920M0 244h920M0 374h920M0 504h920M0 634h920M0 764h920M110 0v880M250 0v880M390 0v880M530 0v880M670 0v880M810 0v880" stroke="#fff" stroke-opacity=".045"/>
  <path d="M650 96c118 39 190 143 162 262-33 143-188 210-277 317-80 96-105 215-240 200-127-14-223-120-226-250-3-137 108-206 190-292 82-85 107-212 223-242 57-15 111-13 168 5z" fill="#55d6e8" opacity=".08"/>

  <g filter="url(#soft)">
    <rect x="80" y="82" width="760" height="610" rx="18" fill="#0b1020" stroke="#fff" stroke-opacity=".13"/>
    <rect x="80" y="82" width="760" height="72" rx="18" fill="#151f34"/>
    <circle cx="122" cy="118" r="8" fill="#f3c969"/>
    <circle cx="150" cy="118" r="8" fill="#55d6e8"/>
    <circle cx="178" cy="118" r="8" fill="#8ddf93"/>
    <text x="222" y="126" fill="#dce6f8" font-family="Arial, sans-serif" font-size="22" font-weight="700">Daystar Growth Console</text>

    <rect x="116" y="196" width="214" height="134" rx="10" fill="#121a31" stroke="#fff" stroke-opacity=".1"/>
    <text x="142" y="237" fill="#8290a6" font-family="Arial, sans-serif" font-size="18">GMV Growth</text>
    <text x="142" y="292" fill="#c8f9ff" font-family="Arial, sans-serif" font-size="54" font-weight="800">128%</text>
    <path d="M143 306h142" stroke="url(#cyan)" stroke-width="8" stroke-linecap="round"/>

    <rect x="354" y="196" width="214" height="134" rx="10" fill="#121a31" stroke="#fff" stroke-opacity=".1"/>
    <text x="380" y="237" fill="#8290a6" font-family="Arial, sans-serif" font-size="18">ROI Stability</text>
    <text x="380" y="292" fill="#c8f9ff" font-family="Arial, sans-serif" font-size="54" font-weight="800">4.6x</text>
    <path d="M381 306h122" stroke="url(#cyan)" stroke-width="8" stroke-linecap="round"/>

    <rect x="592" y="196" width="214" height="134" rx="10" fill="#121a31" stroke="#fff" stroke-opacity=".1"/>
    <text x="618" y="237" fill="#8290a6" font-family="Arial, sans-serif" font-size="18">Creative Tests</text>
    <text x="618" y="292" fill="#c8f9ff" font-family="Arial, sans-serif" font-size="54" font-weight="800">320+</text>
    <path d="M619 306h154" stroke="url(#cyan)" stroke-width="8" stroke-linecap="round"/>

    <rect x="116" y="372" width="452" height="256" rx="10" fill="#121a31" stroke="#fff" stroke-opacity=".1"/>
    <text x="142" y="416" fill="#dce6f8" font-family="Arial, sans-serif" font-size="22" font-weight="700">Market Performance</text>
    <path d="M146 570C198 518 232 544 275 490c44-55 87-32 132-76 48-46 87-32 130-58" fill="none" stroke="#55d6e8" stroke-width="7" stroke-linecap="round"/>
    <path d="M146 590c54-22 98-20 145-42 51-24 86-71 132-72 43-1 78 29 114 12" fill="none" stroke="#f3c969" stroke-width="7" stroke-linecap="round" opacity=".92"/>
    <g fill="#fff" opacity=".12">
      <rect x="146" y="452" width="360" height="2"/>
      <rect x="146" y="500" width="360" height="2"/>
      <rect x="146" y="548" width="360" height="2"/>
      <rect x="146" y="596" width="360" height="2"/>
    </g>

    <rect x="592" y="372" width="214" height="256" rx="10" fill="#121a31" stroke="#fff" stroke-opacity=".1"/>
    <text x="618" y="416" fill="#dce6f8" font-family="Arial, sans-serif" font-size="22" font-weight="700">Budget Mix</text>
    <circle cx="700" cy="514" r="68" fill="none" stroke="#263349" stroke-width="28"/>
    <path d="M700 446a68 68 0 1 1-61 98" fill="none" stroke="url(#cyan)" stroke-width="28" stroke-linecap="round"/>
    <path d="M638 548a68 68 0 0 1 32-96" fill="none" stroke="url(#gold)" stroke-width="28" stroke-linecap="round"/>
    <text x="673" y="524" fill="#c8f9ff" font-family="Arial, sans-serif" font-size="30" font-weight="800">73%</text>
  </g>

  <g filter="url(#soft)">
    <rect x="206" y="722" width="508" height="84" rx="14" fill="#111827" stroke="#fff" stroke-opacity=".13"/>
    <text x="240" y="756" fill="#8290a6" font-family="Arial, sans-serif" font-size="17">Next action</text>
    <text x="240" y="786" fill="#f8fbff" font-family="Arial, sans-serif" font-size="24" font-weight="700">Scale winners, refresh creatives, review ROI weekly</text>
  </g>
</svg>
